<mxfile host="app.diagrams.net" modified="2024-04-19T17:27:12.254Z" agent="Mozilla/5.0 (Macintosh; Intel Mac OS X 10.15; rv:125.0) Gecko/20100101 Firefox/125.0" version="24.2.5" etag="CBTEm6qdvhGBq4fvN1pE" type="github">
  <diagram name="Page-1" id="1pSw0mMazfSblqHfW_n3">
    <mxGraphModel>
      <root>
        <mxCell id="0" />
        <mxCell id="1" parent="0" />
      </root>
    </mxGraphModel>
  </diagram>
</mxfile>
